<svg width="18" height="18" viewBox="0 0 18 18" fill="none" xmlns="http://www.w3.org/2000/svg">
<path id="Vector" d="M13.7048 12.8475L17.274 16.4158L16.0948 17.595L12.5265 14.0258C11.1988 15.0902 9.54731 15.6691 7.84564 15.6667C3.70564 15.6667 0.345642 12.3067 0.345642 8.16666C0.345642 4.02666 3.70564 0.666656 7.84564 0.666656C11.9856 0.666656 15.3456 4.02666 15.3456 8.16666C15.3481 9.86832 14.7692 11.5198 13.7048 12.8475ZM12.0331 12.2292C13.0907 11.1416 13.6814 9.68368 13.679 8.16666C13.679 4.94332 11.0681 2.33332 7.84564 2.33332C4.62231 2.33332 2.01231 4.94332 2.01231 8.16666C2.01231 11.3892 4.62231 14 7.84564 14C9.36267 14.0024 10.8205 13.4118 11.9081 12.3542L12.0331 12.2292Z" fill="#A7A7A7"/>
</svg>
